<?xml version="1.0" encoding="UTF-8" standalone="no"?>
<svg
   class="svg-icon"
   style="overflow:hidden;fill:currentColor"
   viewBox="0 0 393216 1048576"
   version="1.1"
   id="svg9"
   sodipodi:docname="rca.svg"
   inkscape:version="1.4.2 (ebf0e940d0, 2025-05-08)"
   width="393216"
   height="1048576"
   xmlns:inkscape="http://www.inkscape.org/namespaces/inkscape"
   xmlns:sodipodi="http://sodipodi.sourceforge.net/DTD/sodipodi-0.dtd"
   xmlns="http://www.w3.org/2000/svg"
   xmlns:svg="http://www.w3.org/2000/svg">
  <defs
     id="defs9" />
  <sodipodi:namedview
     id="namedview9"
     pagecolor="#ffffff"
     bordercolor="#000000"
     borderopacity="0.25"
     inkscape:showpageshadow="2"
     inkscape:pageopacity="0.0"
     inkscape:pagecheckerboard="0"
     inkscape:deskcolor="#d1d1d1"
     inkscape:zoom="0.39013672"
     inkscape:cx="413.95745"
     inkscape:cy="538.27284"
     inkscape:window-width="1278"
     inkscape:window-height="661"
     inkscape:window-x="445"
     inkscape:window-y="182"
     inkscape:window-maximized="0"
     inkscape:current-layer="svg9">
    <inkscape:page
       x="0"
       y="0"
       width="393216"
       height="1048576"
       id="page2"
       margin="0"
       bleed="0" />
  </sodipodi:namedview>
  <path
     d="m -327253.33,836.624 h 170.64 V 1024 h -170.64 z"
     fill="#434a54"
     id="path1"
     inkscape:export-filename="rca1.svg"
     inkscape:export-xdpi="96"
     inkscape:export-ydpi="96" />
  <path
     d="M -327104,298.656 V 64 c 0,-35.344 -28.66,-64 -64,-64 -35.34,0 -64,28.656 -64,64 v 234.656 z"
     fill="#f6bb42"
     id="path2" />
  <path
     d="m -327040,424 c 0,23.562 -19.12,42.656 -42.69,42.656 h -170.64 c -23.56,0 -42.67,-19.094 -42.67,-42.656 V 256 c 0,-23.562 19.11,-42.688 42.67,-42.688 h 170.64 c 23.56,0 42.69,19.124 42.69,42.688 z"
     fill="#ffce54"
     id="path3" />
  <path
     d="m -327338.67,213.312 c -11.78,0 -21.33,9.562 -21.33,21.344 v 156.438 h 42.67 V 234.656 c 0,-11.78 -9.56,-21.344 -21.34,-21.344 z m 341.36,0 c -11.81,0 -21.38,9.562 -21.38,21.344 v 156.438 h 42.69 V 234.656 c 0,-11.78 -9.56,-21.344 -21.31,-21.344 z"
     fill="#ffce54"
     id="path4" />
  <path
     d="m -327018.69,341.312 h -298.64 c -23.56,0 -42.67,19.126 -42.67,42.688 v 256 l 64,128 v 170.624 h 256 V 768 l 64,-128 V 384 c 0,-23.562 -19.12,-42.688 -42.69,-42.688 z"
     fill="#ed5564"
     id="path5" />
  <path
     d="m -327296,768 h 256 v 170.624 h -256 z"
     fill="#da4453"
     id="path6" />
  <path
     d="m -327274.67,810.624 c 0,-11.75 -9.55,-21.312 -21.33,-21.312 V 832 c 11.78,0 21.33,-9.562 21.33,-21.376 z m 0,42.688 c 0,-11.75 -9.55,-21.312 -21.33,-21.312 v 42.624 c 11.78,0 21.33,-9.5 21.33,-21.312 z m 0,42.688 c 0,-11.812 -9.55,-21.376 -21.33,-21.376 v 42.688 c 11.78,0 21.33,-9.562 21.33,-21.312 z m 213.36,0 c 0,11.75 9.53,21.312 21.31,21.312 v -42.688 c -11.78,0 -21.31,9.564 -21.31,21.376 z"
     opacity="0.1"
     id="path7" />
  <path
     d="m -327061.31,853.312 a 21.28,21.28 0 0 0 21.31,21.312 V 832 c -11.78,0 -21.31,9.562 -21.31,21.312 z m 0,-42.688 c 0,11.812 9.53,21.376 21.31,21.376 v -42.688 c -11.78,0 -21.31,9.564 -21.31,21.312 z"
     opacity="0.1"
     id="path8" />
  <path
     d="m -327232,533.312 h 128 c 11.78,0 21.31,-9.532 21.31,-21.312 0,-11.78 -9.53,-21.344 -21.31,-21.344 h -128 c -11.78,0 -21.33,9.562 -21.33,21.344 0,11.782 9.55,21.312 21.33,21.312 z m 128,42.688 h -128 c -11.78,0 -21.33,9.532 -21.33,21.312 0,11.78 9.55,21.344 21.33,21.344 h 128 c 11.78,0 21.31,-9.562 21.31,-21.344 0,-11.782 -9.53,-21.312 -21.31,-21.312 z"
     fill="#da4453"
     id="path9" />
</svg>
