<?xml version="1.0" encoding="UTF-8" standalone="no"?>
<!-- Created with Inkscape (http://www.inkscape.org/) -->

<svg
   version="1.1"
   id="svg1"
   width="188"
   height="78.666664"
   viewBox="0 0 188 78.666664"
   sodipodi:docname="planta.svg"
   inkscape:export-filename="planta.pdf"
   inkscape:export-xdpi="96"
   inkscape:export-ydpi="96"
   inkscape:version="1.4.3 (1:1.4.3+202512261035+0d15f75042)"
   xmlns:inkscape="http://www.inkscape.org/namespaces/inkscape"
   xmlns:sodipodi="http://sodipodi.sourceforge.net/DTD/sodipodi-0.dtd"
   xmlns="http://www.w3.org/2000/svg"
   xmlns:svg="http://www.w3.org/2000/svg">
  <defs
     id="defs1">
    <clipPath
       clipPathUnits="userSpaceOnUse"
       id="clipPath4">
      <path
         d="M 67.749333,0 H 188 V 78.666667 H 67.749333 Z"
         id="path4" />
    </clipPath>
    <clipPath
       clipPathUnits="userSpaceOnUse"
       id="clipPath15">
      <path
         d="M 0,0 H 109.948 V 78.666667 H 0 Z"
         id="path15" />
    </clipPath>
  </defs>
  <sodipodi:namedview
     id="namedview1"
     pagecolor="#ffffff"
     bordercolor="#000000"
     borderopacity="0.25"
     inkscape:showpageshadow="2"
     inkscape:pageopacity="0.0"
     inkscape:pagecheckerboard="0"
     inkscape:deskcolor="#d1d1d1"
     inkscape:zoom="3.3380706"
     inkscape:cx="149.18798"
     inkscape:cy="60.96336"
     inkscape:window-width="1920"
     inkscape:window-height="1008"
     inkscape:window-x="0"
     inkscape:window-y="0"
     inkscape:window-maximized="1"
     inkscape:current-layer="g1">
    <inkscape:page
       x="0"
       y="0"
       inkscape:label="1"
       id="page1"
       width="188"
       height="78.666664"
       margin="0"
       bleed="0" />
  </sodipodi:namedview>
  <g
     id="g1"
     inkscape:groupmode="layer"
     inkscape:label="1">
    <path
       id="path1"
       d="M 0,0 H 141 V 59 H 0 Z"
       style="fill:#fff6d5;fill-opacity:1;fill-rule:nonzero;stroke:none"
       transform="scale(1.3333333)"
       inkscape:export-filename="planta.pdf"
       inkscape:export-xdpi="96"
       inkscape:export-ydpi="96" />
    <path
       id="path2"
       d="M 39.563,46.432 H 57.785"
       style="fill:none;stroke:#0066ff;stroke-width:0.853969;stroke-linecap:round;stroke-linejoin:round;stroke-miterlimit:1;stroke-dasharray:none;stroke-opacity:1"
       transform="scale(1.3333333,1.3324947)" />
    <g
       id="g3"
       clip-path="url(#clipPath4)">
      <path
         d="M 68.531,-23.718 88.957,-38.532 68.531,-53.346 H 57.887 l -0.282,29.628 z"
         style="fill:#ffeeaa;fill-opacity:1;fill-rule:nonzero;stroke:#d4aa00;stroke-width:0.853863;stroke-linecap:butt;stroke-linejoin:miter;stroke-miterlimit:10;stroke-dasharray:none;stroke-opacity:1"
         transform="scale(1.3333333,-1.3324947)"
         id="path3" />
    </g>
    <path
       id="path5"
       d="M 57.73,23.777 H 68.371 V 53.256 H 57.73 Z"
       style="fill:#ffffff;fill-opacity:1;fill-rule:nonzero;stroke:#ffcc00;stroke-width:0.929275;stroke-linecap:round;stroke-linejoin:round;stroke-miterlimit:1;stroke-dasharray:none;stroke-opacity:1"
       transform="scale(1.3333333,1.3324947)" />
    <path
       id="path6"
       d="M 68.199,23.812 V 53.44"
       style="fill:none;stroke:#ffcc00;stroke-width:0.729965;stroke-linecap:butt;stroke-linejoin:miter;stroke-miterlimit:10;stroke-dasharray:none;stroke-opacity:1"
       transform="scale(1.3333333,1.3324947)" />
    <path
       id="path7"
       d="m 74.242,44.215 c -0.191,2.234 -0.68,2.851 -1.449,2.851 -0.168,0 -0.594,-0.043 -0.871,-0.296 0.402,-0.043 0.512,-0.364 0.512,-0.555 0,-0.383 -0.301,-0.574 -0.555,-0.574 -0.277,0 -0.574,0.191 -0.574,0.597 0,0.637 0.679,1.125 1.488,1.125 1.301,0 1.941,-1.191 2.238,-2.402 0.172,-0.703 0.66,-4.664 0.789,-6.176 l 0.254,-3.387 c 0.192,-2.488 0.641,-2.828 1.258,-2.828 0.129,0 0.555,0.02 0.852,0.274 -0.383,0.066 -0.489,0.386 -0.489,0.578 0,0.383 0.297,0.551 0.551,0.551 0.277,0 0.578,-0.168 0.578,-0.575 0,-0.66 -0.683,-1.128 -1.515,-1.128 -1.278,0 -1.809,1.32 -2.043,2.343 -0.172,0.746 -0.661,4.578 -0.766,6.239 z"
       style="fill:#806600;fill-opacity:1;fill-rule:nonzero;stroke:none"
       transform="scale(1.3333333)" />
    <path
       id="path8"
       d="m 64.148,39.234 c 0.098,-0.117 0.098,-0.175 0.098,-0.195 0,-0.055 -0.031,-0.133 -0.066,-0.172 L 62.059,35.23 h 2.382 c 1.75,0 2.27,0.442 2.481,2.387 h 0.258 l -0.293,-2.769 h -5.739 c -0.242,0 -0.257,0 -0.257,0.285 l 2.578,4.445 -2.465,3.332 c -0.113,0.133 -0.113,0.152 -0.113,0.192 0,0.132 0.113,0.132 0.257,0.132 h 5.739 l 0.293,-2.906 h -0.258 c -0.18,2.063 -0.895,2.387 -2.516,2.387 h -2.851 z"
       style="fill:#806600;fill-opacity:1;fill-rule:nonzero;stroke:none"
       transform="scale(1.3333333)" />
    <text
       id="text8"
       xml:space="preserve"
       transform="matrix(1.3333333,0,0,0.86018151,78.05748,54.752819)"><tspan
         id="tspan8"
         style="font-variant:normal;font-weight:normal;font-size:10.3818px;font-family:'TeX Gyre Pagella';writing-mode:lr-tb;fill:#806600;fill-opacity:1;fill-rule:nonzero;stroke:none"
         x="0"
         y="0">-</tspan></text>
    <path
       id="path9"
       d="m 58.715,61.379 0.062,0.048 h 2.688 l 0.312,-0.702 -0.047,-0.049 h -2.734 z"
       style="fill:none;stroke:#806600;stroke-width:0.220719;stroke-linecap:round;stroke-linejoin:round;stroke-miterlimit:1;stroke-dasharray:none;stroke-opacity:1"
       transform="scale(1.3333333,0.86018133)" />
    <path
       id="path10"
       d="M 57.73,23.777 H 68.371 V 53.256 H 57.73 Z"
       style="fill:#ffffff;fill-opacity:1;fill-rule:nonzero;stroke:#d4aa00;stroke-width:0.853864;stroke-linecap:round;stroke-linejoin:round;stroke-miterlimit:1;stroke-dasharray:none;stroke-opacity:1"
       transform="scale(1.3333333,1.3324947)" />
    <path
       id="path11"
       d="m 74.242,44.215 c -0.191,2.234 -0.68,2.851 -1.449,2.851 -0.168,0 -0.594,-0.043 -0.871,-0.296 0.402,-0.043 0.512,-0.364 0.512,-0.555 0,-0.383 -0.301,-0.574 -0.555,-0.574 -0.277,0 -0.574,0.191 -0.574,0.597 0,0.637 0.679,1.125 1.488,1.125 1.301,0 1.941,-1.191 2.238,-2.402 0.172,-0.703 0.66,-4.664 0.789,-6.176 l 0.254,-3.387 c 0.192,-2.488 0.641,-2.828 1.258,-2.828 0.129,0 0.555,0.02 0.852,0.274 -0.383,0.066 -0.489,0.386 -0.489,0.578 0,0.383 0.297,0.551 0.551,0.551 0.277,0 0.578,-0.168 0.578,-0.575 0,-0.66 -0.683,-1.128 -1.515,-1.128 -1.278,0 -1.809,1.32 -2.043,2.343 -0.172,0.746 -0.661,4.578 -0.766,6.239 z"
       style="fill:#806600;fill-opacity:1;fill-rule:nonzero;stroke:none"
       transform="scale(1.3333333)" />
    <path
       id="path12"
       d="m 64.148,39.234 c 0.098,-0.117 0.098,-0.175 0.098,-0.195 0,-0.055 -0.031,-0.133 -0.066,-0.172 L 62.059,35.23 h 2.382 c 1.75,0 2.27,0.442 2.481,2.387 h 0.258 l -0.293,-2.769 h -5.739 c -0.242,0 -0.257,0 -0.257,0.285 l 2.578,4.445 -2.465,3.332 c -0.113,0.133 -0.113,0.152 -0.113,0.192 0,0.132 0.113,0.132 0.257,0.132 h 5.739 l 0.293,-2.906 h -0.258 c -0.18,2.063 -0.895,2.387 -2.516,2.387 h -2.851 z"
       style="fill:#806600;fill-opacity:1;fill-rule:nonzero;stroke:none"
       transform="scale(1.3333333)" />
    <text
       id="text12"
       xml:space="preserve"
       transform="matrix(1.3333333,0,0,0.86018151,78.05748,54.752819)"><tspan
         id="tspan12"
         style="font-variant:normal;font-weight:normal;font-size:10.3818px;font-family:'TeX Gyre Pagella';writing-mode:lr-tb;fill:#806600;fill-opacity:1;fill-rule:nonzero;stroke:none"
         x="0"
         y="0">-</tspan></text>
    <path
       id="path13"
       d="m 58.715,61.379 0.062,0.048 h 2.688 l 0.312,-0.702 -0.047,-0.049 h -2.734 z"
       style="fill:none;stroke:#806600;stroke-width:0.220719;stroke-linecap:round;stroke-linejoin:round;stroke-miterlimit:1;stroke-dasharray:none;stroke-opacity:1"
       transform="scale(1.3333333,0.86018133)" />
    <g
       id="g14"
       clip-path="url(#clipPath15)">
      <path
         d="m 32.27,-39.216 c 4.042,0 7.324,-3.279 7.324,-7.325 0,-4.046 -3.282,-7.325 -7.324,-7.325 -4.043,0 -7.325,3.279 -7.325,7.325 0,4.046 3.282,7.325 7.325,7.325 z"
         style="fill:#ffffff;fill-opacity:1;fill-rule:nonzero;stroke:#0066ff;stroke-width:0.729966;stroke-linecap:butt;stroke-linejoin:miter;stroke-miterlimit:10;stroke-dasharray:none;stroke-opacity:1"
         transform="scale(1.3333333,-1.3324947)"
         id="path14" />
    </g>
    <path
       id="path16"
       d="M 57.418,31.403 V 31.242 H 47.547 L 47.434,9.463 89.094,9.209 88.82,38.774"
       style="fill:none;stroke:#d4aa00;stroke-width:0.853864;stroke-linecap:round;stroke-linejoin:round;stroke-miterlimit:1;stroke-dasharray:none;stroke-opacity:1"
       transform="scale(1.3333333,1.3324947)" />
    <path
       id="path17"
       d="M 6.711,46.432 H 24.477"
       style="fill:none;stroke:#0066ff;stroke-width:0.853969;stroke-linecap:round;stroke-linejoin:round;stroke-miterlimit:1;stroke-dasharray:none;stroke-opacity:1"
       transform="scale(1.3333333,1.3324947)" />
    <path
       id="path18"
       d="m 148.22937,53.087999 c -0.14,0 -0.296,0 -0.296,-0.166667 0,-0.156 0.156,-0.156 0.296,-0.156 h 4.45866 c 0.14,0 0.28667,0 0.28667,0.156 0,0.166667 -0.14667,0.166667 -0.28667,0.166667 z"
       style="fill:#44aa00;fill-opacity:1;fill-rule:nonzero;stroke:#44aa00;stroke-width:1.33333" />
    <path
       id="path19"
       d="m 144.8187,49.718665 c 0,-0.208 0,-0.218666 0.192,-0.218666 0.52133,0.526666 1.24,0.526666 1.5,0.526666 v 0.26 c -0.16667,0 -0.64533,0 -1.07333,-0.218666 v 4.276 c 0,0.296 0.0267,0.385333 0.76666,0.385333 h 0.25467 v 0.26 c -0.28133,-0.02533 -0.99467,-0.02533 -1.328,-0.02533 -0.32267,0 -1.04667,0 -1.33333,0.02533 v -0.26 h 0.26 c 0.75066,0 0.76133,-0.08933 0.76133,-0.385333 z"
       style="fill:#44aa00;fill-opacity:1;fill-rule:nonzero;stroke:#44aa00;stroke-width:1.33333" />
    <path
       id="path20"
       d="m 148.22937,53.087999 c -0.14,0 -0.296,0 -0.296,-0.166667 0,-0.156 0.156,-0.156 0.296,-0.156 h 4.45866 c 0.14,0 0.28667,0 0.28667,0.156 0,0.166667 -0.14667,0.166667 -0.28667,0.166667 z"
       style="fill:#44aa00;fill-opacity:1;fill-rule:nonzero;stroke:#44aa00;stroke-width:1.33333" />
    <path
       id="path21"
       d="m 144.8187,49.718665 c 0,-0.208 0,-0.218666 0.192,-0.218666 0.52133,0.526666 1.24,0.526666 1.5,0.526666 v 0.26 c -0.16667,0 -0.64533,0 -1.07333,-0.218666 v 4.276 c 0,0.296 0.0267,0.385333 0.76666,0.385333 h 0.25467 v 0.26 c -0.28133,-0.02533 -0.99467,-0.02533 -1.328,-0.02533 -0.32267,0 -1.04667,0 -1.33333,0.02533 v -0.26 h 0.26 c 0.75066,0 0.76133,-0.08933 0.76133,-0.385333 z"
       style="fill:#44aa00;fill-opacity:1;fill-rule:nonzero;stroke:#44aa00;stroke-width:1.33333" />
    <path
       id="path22"
       d="m 148.22937,53.087999 c -0.14,0 -0.296,0 -0.296,-0.166667 0,-0.156 0.156,-0.156 0.296,-0.156 h 4.45866 c 0.14,0 0.28667,0 0.28667,0.156 0,0.166667 -0.14667,0.166667 -0.28667,0.166667 z"
       style="fill:#44aa00;fill-opacity:1;fill-rule:nonzero;stroke:#44aa00;stroke-width:1.33333" />
    <path
       id="path23"
       d="m 144.8187,49.718665 c 0,-0.208 0,-0.218666 0.192,-0.218666 0.52133,0.526666 1.24,0.526666 1.5,0.526666 v 0.26 c -0.16667,0 -0.64533,0 -1.07333,-0.218666 v 4.276 c 0,0.296 0.0267,0.385333 0.76666,0.385333 h 0.25467 v 0.26 c -0.28133,-0.02533 -0.99467,-0.02533 -1.328,-0.02533 -0.32267,0 -1.04667,0 -1.33333,0.02533 v -0.26 h 0.26 c 0.75066,0 0.76133,-0.08933 0.76133,-0.385333 z"
       style="fill:#44aa00;fill-opacity:1;fill-rule:nonzero;stroke:#44aa00;stroke-width:1.33333" />
    <path
       id="path24"
       d="m 148.22937,53.087999 c -0.14,0 -0.296,0 -0.296,-0.166667 0,-0.156 0.156,-0.156 0.296,-0.156 h 4.45866 c 0.14,0 0.28667,0 0.28667,0.156 0,0.166667 -0.14667,0.166667 -0.28667,0.166667 z"
       style="fill:#44aa00;fill-opacity:1;fill-rule:nonzero;stroke:#44aa00;stroke-width:1.33333" />
    <path
       id="path25"
       d="m 144.8187,49.718665 c 0,-0.208 0,-0.218666 0.192,-0.218666 0.52133,0.526666 1.24,0.526666 1.5,0.526666 v 0.26 c -0.16667,0 -0.64533,0 -1.07333,-0.218666 v 4.276 c 0,0.296 0.0267,0.385333 0.76666,0.385333 h 0.25467 v 0.26 c -0.28133,-0.02533 -0.99467,-0.02533 -1.328,-0.02533 -0.32267,0 -1.04667,0 -1.33333,0.02533 v -0.26 h 0.26 c 0.75066,0 0.76133,-0.08933 0.76133,-0.385333 z"
       style="fill:#44aa00;fill-opacity:1;fill-rule:nonzero;stroke:#44aa00;stroke-width:1.33333" />
    <text
       id="text25"
       xml:space="preserve"
       transform="matrix(1.3333333,0,0,1.3324939,40.190928,65.449235)"><tspan
         id="tspan25"
         style="font-variant:normal;font-weight:normal;font-size:8.03266px;font-family:'TeX Gyre Pagella Math';writing-mode:lr-tb;fill:#0066ff;fill-opacity:1;fill-rule:nonzero;stroke:none"
         x="0"
         y="0">2</tspan></text>
    <path
       id="path26"
       d="M 89.547,38.899 H 107.77"
       style="fill:#44aa00;stroke:#44aa00;stroke-width:0.853969;stroke-linecap:round;stroke-linejoin:round;stroke-miterlimit:1;stroke-dasharray:none;stroke-opacity:1"
       transform="scale(1.3333333,1.3324947)" />
    <path
       id="path27"
       d="m 118.227,39.22 h 18.218"
       style="fill:#44aa00;stroke:#44aa00;stroke-width:0.853969;stroke-linecap:round;stroke-linejoin:round;stroke-miterlimit:1;stroke-dasharray:none;stroke-opacity:1"
       transform="scale(1.3333333,1.3324947)" />
    <path
       id="path28"
       d="m 10.883,41.316 c 0.148,0.555 0.64,0.914 1.215,0.914 0.468,0 0.789,-0.316 1.004,-0.742 0.234,-0.492 0.402,-1.324 0.402,-1.343 0,-0.149 -0.106,-0.149 -0.149,-0.149 -0.148,0 -0.148,0.063 -0.191,0.254 -0.191,0.77 -0.449,1.684 -1.023,1.684 -0.278,0 -0.426,-0.172 -0.426,-0.618 0,-0.296 0.168,-0.937 0.277,-1.429 l 0.383,-1.469 c 0.043,-0.191 0.172,-0.703 0.234,-0.918 0.063,-0.316 0.192,-0.828 0.192,-0.914 0,-0.234 -0.192,-0.363 -0.383,-0.363 -0.066,0 -0.426,0.023 -0.535,0.468 -0.254,1.004 -0.852,3.387 -1.024,4.094 -0.019,0.063 -0.554,1.149 -1.554,1.149 -0.703,0 -0.832,-0.618 -0.832,-1.11 0,-0.765 0.382,-1.832 0.726,-2.769 0.168,-0.426 0.235,-0.617 0.235,-0.871 0,-0.598 -0.426,-1.11 -1.11,-1.11 -1.301,0 -1.793,1.981 -1.793,2.09 0,0.148 0.129,0.148 0.153,0.148 0.148,0 0.148,-0.042 0.211,-0.257 0.339,-1.172 0.875,-1.684 1.386,-1.684 0.129,0 0.34,0.024 0.34,0.449 0,0.321 -0.148,0.723 -0.234,0.914 -0.512,1.368 -0.789,2.196 -0.789,2.856 0,1.301 0.937,1.64 1.664,1.64 0.894,0 1.386,-0.617 1.621,-0.914 z"
       style="fill:#0066ff;fill-opacity:1;fill-rule:nonzero;stroke:none"
       transform="scale(1.3333333)" />
    <path
       id="path29"
       d="m 134.984,28.059 c 0.063,-0.192 0.063,-0.215 0.063,-0.321 0,-0.234 -0.192,-0.363 -0.406,-0.363 -0.129,0 -0.34,0.086 -0.469,0.277 -0.02,0.086 -0.149,0.493 -0.192,0.746 -0.105,0.34 -0.191,0.727 -0.277,1.086 l -0.617,2.454 c -0.043,0.191 -0.641,1.148 -1.535,1.148 -0.684,0 -0.832,-0.594 -0.832,-1.106 0,-0.621 0.234,-1.472 0.683,-2.664 0.211,-0.554 0.274,-0.703 0.274,-0.98 0,-0.598 -0.426,-1.109 -1.106,-1.109 -1.3,0 -1.793,1.98 -1.793,2.089 0,0.149 0.129,0.149 0.149,0.149 0.152,0 0.152,-0.043 0.215,-0.258 0.382,-1.277 0.918,-1.68 1.386,-1.68 0.106,0 0.34,0 0.34,0.426 0,0.34 -0.148,0.703 -0.234,0.957 -0.555,1.449 -0.789,2.215 -0.789,2.856 0,1.214 0.851,1.621 1.664,1.621 0.531,0 0.98,-0.235 1.363,-0.621 -0.172,0.703 -0.34,1.386 -0.875,2.113 -0.359,0.445 -0.871,0.851 -1.492,0.851 -0.192,0 -0.809,-0.042 -1.043,-0.578 0.211,0 0.406,0 0.574,-0.168 0.149,-0.105 0.277,-0.3 0.277,-0.554 0,-0.426 -0.363,-0.469 -0.488,-0.469 -0.32,0 -0.769,0.215 -0.769,0.875 0,0.68 0.597,1.191 1.449,1.191 1.387,0 2.793,-1.234 3.18,-2.769 z"
       style="fill:#44aa00;fill-opacity:1;fill-rule:nonzero;stroke:none"
       transform="scale(1.3333333)" />
    <path
       id="path30"
       d="m 105.184,5.297 c 0,-0.02 -0.012,-0.07 -0.071,-0.07 -0.019,0 -0.031,0.007 -0.101,0.078 l -0.442,0.492 c -0.058,-0.09 -0.351,-0.57 -1.062,-0.57 -1.434,0 -2.871,1.414 -2.871,2.898 0,1.02 0.715,1.754 1.746,1.754 0.281,0 0.574,-0.063 0.805,-0.152 0.32,-0.129 0.441,-0.262 0.55,-0.391 0.059,0.16 0.231,0.391 0.289,0.391 0.032,0 0.051,-0.02 0.051,-0.02 0.012,-0.008 0.07,-0.262 0.102,-0.391 l 0.121,-0.492 c 0.027,-0.109 0.058,-0.219 0.09,-0.328 0.07,-0.281 0.07,-0.301 0.441,-0.301 0.031,0 0.102,-0.011 0.102,-0.133 0,-0.05 -0.032,-0.07 -0.082,-0.07 -0.153,0 -0.532,0.02 -0.672,0.02 -0.2,0 -0.703,-0.02 -0.903,-0.02 -0.05,0 -0.132,0 -0.132,0.133 0,0.07 0.05,0.07 0.191,0.07 0.012,0 0.191,0 0.344,0.008 0.168,0.02 0.199,0.039 0.199,0.121 0,0.059 -0.07,0.34 -0.141,0.582 -0.179,0.699 -1.004,0.77 -1.234,0.77 -0.613,0 -1.285,-0.36 -1.285,-1.344 0,-0.199 0.062,-1.25 0.734,-2.082 0.352,-0.434 0.973,-0.824 1.606,-0.824 0.652,0 1.031,0.492 1.031,1.234 0,0.262 -0.02,0.262 -0.02,0.332 0,0.059 0.071,0.059 0.09,0.059 0.082,0 0.082,-0.012 0.121,-0.129 z"
       style="fill:#806600;fill-opacity:1;fill-rule:nonzero;stroke:none"
       transform="scale(1.3333333)" />
    <path
       id="path31"
       d="m 107.465,11.27 c 0,-0.02 0,-0.028 -0.113,-0.137 -0.793,-0.805 -1.004,-2.016 -1.004,-3 0,-1.113 0.242,-2.227 1.035,-3.016 0.082,-0.082 0.082,-0.094 0.082,-0.113 0,-0.051 -0.024,-0.07 -0.063,-0.07 -0.07,0 -0.64,0.441 -1.023,1.254 -0.32,0.703 -0.402,1.414 -0.402,1.945 0,0.5 0.07,1.273 0.421,2.004 0.391,0.785 0.934,1.203 1.004,1.203 0.039,0 0.063,-0.02 0.063,-0.07 z"
       style="fill:#806600;fill-opacity:1;fill-rule:nonzero;stroke:none"
       transform="scale(1.3333333)" />
    <path
       id="path32"
       d="m 110.332,7.34 c -0.172,0.012 -0.301,0.152 -0.301,0.293 0,0.09 0.059,0.191 0.199,0.191 0.141,0 0.293,-0.113 0.293,-0.363 0,-0.289 -0.269,-0.551 -0.761,-0.551 -0.844,0 -1.086,0.652 -1.086,0.934 0,0.5 0.472,0.59 0.664,0.629 0.332,0.07 0.66,0.14 0.66,0.492 0,0.16 -0.141,0.703 -0.91,0.703 -0.09,0 -0.582,0 -0.735,-0.34 0.25,0.027 0.411,-0.164 0.411,-0.344 0,-0.14 -0.11,-0.218 -0.239,-0.218 -0.172,0 -0.363,0.129 -0.363,0.422 0,0.359 0.371,0.621 0.914,0.621 1.043,0 1.293,-0.774 1.293,-1.063 0,-0.23 -0.117,-0.391 -0.199,-0.461 -0.172,-0.183 -0.36,-0.223 -0.641,-0.273 -0.23,-0.051 -0.484,-0.098 -0.484,-0.391 0,-0.18 0.152,-0.57 0.715,-0.57 0.16,0 0.48,0.051 0.57,0.289 z"
       style="fill:#806600;fill-opacity:1;fill-rule:nonzero;stroke:none"
       transform="scale(1.3333333)" />
    <path
       id="path33"
       d="m 112.68,8.133 c 0,-0.492 -0.071,-1.262 -0.422,-1.996 -0.383,-0.782 -0.934,-1.203 -0.992,-1.203 -0.043,0 -0.071,0.031 -0.071,0.07 0,0.019 0,0.031 0.117,0.152 0.633,0.633 0.997,1.645 0.997,2.977 0,1.101 -0.231,2.226 -1.024,3.027 -0.09,0.082 -0.09,0.09 -0.09,0.11 0,0.042 0.028,0.07 0.071,0.07 0.058,0 0.64,-0.438 1.011,-1.25 0.332,-0.703 0.403,-1.414 0.403,-1.957 z"
       style="fill:#806600;fill-opacity:1;fill-rule:nonzero;stroke:none"
       transform="scale(1.3333333)" />
    <path
       id="path34"
       d="m 119.492,7.641 c 0.102,0 0.223,0 0.223,-0.118 0,-0.132 -0.121,-0.132 -0.211,-0.132 h -3.832 c -0.09,0 -0.211,0 -0.211,0.132 0,0.118 0.121,0.118 0.211,0.118 z m 0.012,1.246 c 0.09,0 0.211,0 0.211,-0.133 0,-0.121 -0.121,-0.121 -0.223,-0.121 h -3.82 c -0.09,0 -0.211,0 -0.211,0.121 0,0.133 0.121,0.133 0.211,0.133 z"
       style="fill:#806600;fill-opacity:1;fill-rule:nonzero;stroke:none"
       transform="scale(1.3333333)" />
    <path
       id="path35"
       d="m 128.836,4.922 0.684,-0.664 c 0.992,-0.879 1.375,-1.223 1.375,-1.863 0,-0.731 -0.571,-1.243 -1.356,-1.243 -0.723,0 -1.191,0.59 -1.191,1.16 0,0.352 0.32,0.352 0.34,0.352 0.109,0 0.332,-0.07 0.332,-0.34 0,-0.16 -0.122,-0.332 -0.344,-0.332 -0.047,0 -0.059,0 -0.078,0.012 0.14,-0.422 0.492,-0.652 0.863,-0.652 0.582,0 0.851,0.523 0.851,1.043 0,0.511 -0.312,1.011 -0.671,1.414 l -1.223,1.363 c -0.07,0.07 -0.07,0.09 -0.07,0.242 h 2.375 l 0.172,-1.113 h -0.153 c -0.039,0.187 -0.078,0.469 -0.148,0.57 -0.039,0.051 -0.461,0.051 -0.602,0.051 z"
       style="fill:#806600;fill-opacity:1;fill-rule:nonzero;stroke:none"
       transform="scale(1.3333333)" />
    <path
       id="path36"
       d="m 122.617,8.012 h 14.016 v 0.254 h -14.016 z"
       style="fill:#806600;fill-opacity:1;fill-rule:nonzero;stroke:none"
       transform="scale(1.3333333)" />
    <path
       id="path37"
       d="m 125.113,11.727 c -0.168,0.011 -0.301,0.148 -0.301,0.289 0,0.089 0.063,0.191 0.204,0.191 0.14,0 0.289,-0.109 0.289,-0.359 0,-0.293 -0.27,-0.551 -0.762,-0.551 -0.844,0 -1.082,0.648 -1.082,0.93 0,0.503 0.469,0.593 0.66,0.632 0.332,0.071 0.664,0.141 0.664,0.493 0,0.16 -0.14,0.699 -0.914,0.699 -0.09,0 -0.582,0 -0.734,-0.34 0.254,0.031 0.414,-0.16 0.414,-0.34 0,-0.141 -0.11,-0.223 -0.242,-0.223 -0.172,0 -0.36,0.133 -0.36,0.422 0,0.364 0.371,0.621 0.91,0.621 1.047,0 1.297,-0.769 1.297,-1.062 0,-0.231 -0.121,-0.391 -0.203,-0.461 -0.168,-0.18 -0.359,-0.219 -0.641,-0.27 -0.23,-0.05 -0.48,-0.101 -0.48,-0.39 0,-0.18 0.148,-0.57 0.711,-0.57 0.16,0 0.48,0.046 0.57,0.289 z"
       style="fill:#806600;fill-opacity:1;fill-rule:nonzero;stroke:none"
       transform="scale(1.3333333)" />
    <path
       id="path38"
       d="m 129.656,12.648 h 1.785 c 0.09,0 0.211,0 0.211,-0.128 0,-0.122 -0.121,-0.122 -0.211,-0.122 h -1.785 v -1.796 c 0,-0.09 0,-0.207 -0.133,-0.207 -0.128,0 -0.128,0.117 -0.128,0.207 v 1.796 h -1.786 c -0.089,0 -0.211,0 -0.211,0.122 0,0.128 0.122,0.128 0.211,0.128 h 1.786 v 1.797 c 0,0.09 0,0.207 0.128,0.207 0.133,0 0.133,-0.117 0.133,-0.207 z"
       style="fill:#806600;fill-opacity:1;fill-rule:nonzero;stroke:none"
       transform="scale(1.3333333)" />
    <path
       id="path39"
       d="m 135.32,10.031 c 0,-0.16 0,-0.168 -0.152,-0.168 -0.402,0.41 -0.961,0.41 -1.164,0.41 v 0.2 c 0.133,0 0.504,0 0.832,-0.172 v 3.32 c 0,0.231 -0.02,0.301 -0.59,0.301 h -0.203 v 0.199 c 0.223,-0.019 0.773,-0.019 1.035,-0.019 0.25,0 0.813,0 1.035,0.019 v -0.199 h -0.203 c -0.582,0 -0.59,-0.07 -0.59,-0.301 z"
       style="fill:#806600;fill-opacity:1;fill-rule:nonzero;stroke:none"
       transform="scale(1.3333333)" />
    <path
       id="path40"
       d="M 161.17737,52.29109 141.53203,39.391208 v 25.801095 z"
       style="fill:#44aa00;fill-opacity:1;fill-rule:nonzero;stroke:#44aa00;stroke-width:1.13813;stroke-linecap:butt;stroke-linejoin:miter;stroke-miterlimit:10;stroke-dasharray:none;stroke-opacity:1" />
    <path
       id="path41"
       d="m 149.43737,53.469332 c -0.18134,0 -0.38,0 -0.38,-0.214667 0,-0.197333 0.19866,-0.197333 0.38,-0.197333 h 5.69866 c 0.18267,0 0.35867,0 0.35867,0.197333 0,0.214667 -0.176,0.214667 -0.35867,0.214667 z"
       style="fill:#44aa00;fill-opacity:1;fill-rule:nonzero;stroke:#44aa00;stroke-width:1.33333" />
    <path
       id="path42"
       d="m 145.0787,49.161332 c 0,-0.265333 0,-0.281333 0.24933,-0.281333 0.66267,0.677333 1.584,0.677333 1.912,0.677333 v 0.328 c -0.21333,0 -0.82266,0 -1.36933,-0.276 v 5.458667 c 0,0.38 0.036,0.494666 0.97333,0.494666 h 0.33334 v 0.333334 c -0.364,-0.036 -1.27067,-0.036 -1.70267,-0.036 -0.412,0 -1.33867,0 -1.69867,0.036 v -0.333334 h 0.328 c 0.95867,0 0.97467,-0.114666 0.97467,-0.494666 z"
       style="fill:#44aa00;fill-opacity:1;fill-rule:nonzero;stroke:#44aa00;stroke-width:1.33333" />
    <path
       id="path43"
       d="M 161.17737,52.29109 141.53203,39.391208 v 25.801095 z"
       style="fill:#ffffff;fill-opacity:1;fill-rule:nonzero;stroke:#44aa00;stroke-width:1.13813;stroke-linecap:butt;stroke-linejoin:miter;stroke-miterlimit:10;stroke-dasharray:none;stroke-opacity:1" />
    <path
       id="path44"
       d="m 148.50003,52.573332 c 0.15734,0 0.328,0 0.328,-0.188 0,-0.172 -0.17066,-0.172 -0.328,-0.172 h -4.96266 c -0.156,0 -0.31334,0 -0.31334,0.172 0,0.188 0.15734,0.188 0.31334,0.188 z"
       style="fill:#44aa00;fill-opacity:1;fill-rule:nonzero;stroke:none;stroke-width:1.33333" />
    <path
       id="path45"
       d="m 152.29737,48.822665 c 0,-0.229333 0,-0.244 -0.21867,-0.244 -0.57333,0.588 -1.38,0.588 -1.66667,0.588 v 0.292 c 0.188,0 0.71867,0 1.192,-0.245333 v 4.756 c 0,0.328 -0.0253,0.432 -0.848,0.432 h -0.28666 v 0.286667 c 0.31733,-0.032 1.10933,-0.032 1.47866,-0.032 0.36,0 1.16667,0 1.48534,0.032 v -0.286667 h -0.28667 c -0.83867,0 -0.84933,-0.104 -0.84933,-0.432 z"
       style="fill:#338000;fill-opacity:1;fill-rule:nonzero;stroke:none;stroke-width:1.33333" />
    <path
       id="path46"
       d="m 136.44739,38.471154 c 0.084,-0.256 0.084,-0.286667 0.084,-0.428 0,-0.312 -0.256,-0.484 -0.54133,-0.484 -0.172,0 -0.45333,0.114666 -0.62533,0.369333 -0.0267,0.114667 -0.19867,0.657333 -0.256,0.994667 -0.14,0.453333 -0.25467,0.969333 -0.36934,1.448 l -0.82266,3.271999 c -0.0573,0.254667 -0.85467,1.530667 -2.04667,1.530667 -0.912,0 -1.10933,-0.792 -1.10933,-1.474667 0,-0.828 0.312,-1.962666 0.91066,-3.551999 0.28134,-0.738667 0.36534,-0.937334 0.36534,-1.306667 0,-0.797333 -0.568,-1.478667 -1.47467,-1.478667 -1.73333,0 -2.39067,2.64 -2.39067,2.785334 0,0.198666 0.172,0.198666 0.19867,0.198666 0.20267,0 0.20267,-0.05733 0.28667,-0.344 0.50933,-1.702666 1.224,-2.24 1.848,-2.24 0.14133,0 0.45333,0 0.45333,0.568 0,0.453334 -0.19733,0.937334 -0.312,1.276 -0.74,1.932 -1.052,2.953333 -1.052,3.808 0,1.618667 1.13467,2.161333 2.21867,2.161333 0.708,0 1.30666,-0.313333 1.81733,-0.828 -0.22933,0.937334 -0.45333,1.848 -1.16667,2.817334 -0.47866,0.593333 -1.16133,1.134666 -1.98933,1.134666 -0.256,0 -1.07867,-0.056 -1.39067,-0.770666 0.28134,0 0.54134,0 0.76534,-0.224 0.19866,-0.14 0.36933,-0.4 0.36933,-0.738667 0,-0.568 -0.484,-0.625333 -0.65067,-0.625333 -0.42666,0 -1.02533,0.286666 -1.02533,1.166666 0,0.906667 0.796,1.588 1.932,1.588 1.84933,0 3.724,-1.645333 4.24,-3.692 z"
       style="fill:#44aa00;fill-opacity:1;fill-rule:nonzero;stroke:none;stroke-width:1.33333" />
    <text
       xml:space="preserve"
       style="font-size:16.7703px;font-family:'TeX Gyre Pagella Math';-inkscape-font-specification:'TeX Gyre Pagella Math';writing-mode:lr-tb;direction:ltr;fill:#44aa00;stroke-width:1.78266;stroke-linecap:round"
       x="122.12272"
       y="46.7658"
       id="text46"><tspan
         sodipodi:role="line"
         id="tspan46"
         x="122.12272"
         y="46.7658"
         style="stroke-width:1.78266;fill:#44aa00">-</tspan></text>
  </g>
</svg>
